<?xml version="1.0" encoding="UTF-8" standalone="no"?>
<svg
   width="72"
   height="72"
   viewBox="0 0 72 72"
   fill="none"
   version="1.1"
   id="svg189"
   sodipodi:docname="archive.svg"
   inkscape:version="1.1.2 (b8e25be833, 2022-02-05)"
   xmlns:inkscape="http://www.inkscape.org/namespaces/inkscape"
   xmlns:sodipodi="http://sodipodi.sourceforge.net/DTD/sodipodi-0.dtd"
   xmlns="http://www.w3.org/2000/svg"
   xmlns:svg="http://www.w3.org/2000/svg">
  <defs
     id="defs193" />
  <sodipodi:namedview
     id="namedview191"
     pagecolor="#ffffff"
     bordercolor="#666666"
     borderopacity="1.0"
     inkscape:pageshadow="2"
     inkscape:pageopacity="0.0"
     inkscape:pagecheckerboard="0"
     showgrid="false"
     inkscape:zoom="11.430556"
     inkscape:cx="36"
     inkscape:cy="36.043742"
     inkscape:window-width="1920"
     inkscape:window-height="1009"
     inkscape:window-x="-8"
     inkscape:window-y="-8"
     inkscape:window-maximized="1"
     inkscape:current-layer="svg189" />
  <path
     style="color:#000000;fill:#060b08;stroke-linecap:round;stroke-linejoin:round;-inkscape-stroke:none"
     d="m 9,23.294922 a 1.25,1.25 0 0 0 -1.25,1.25 v 30.363281 c 0,2.884743 2.365364,5.25 5.25,5.25 h 23 9.818359 a 1.25,1.25 0 0 0 1.25,-1.25 1.25,1.25 0 0 0 -1.25,-1.25 H 36 13 c -1.533559,0 -2.75,-1.216348 -2.75,-2.75 V 24.544922 a 1.25,1.25 0 0 0 -1.25,-1.25 z m 54,0 a 1.25,1.25 0 0 0 -1.25,1.25 v 21.68164 a 1.25,1.25 0 0 0 1.25,1.25 1.25,1.25 0 0 0 1.25,-1.25 v -21.68164 a 1.25,1.25 0 0 0 -1.25,-1.25 z"
     id="path179" />
  <path
     d="M56.0227 64.2274C56.0227 64.9177 56.5824 65.4774 57.2727 65.4774C57.9631 65.4774 58.5227 64.9177 58.5227 64.2274H56.0227ZM57.2727 55.6365L58.1566 54.7526C57.6685 54.2644 56.877 54.2644 56.3888 54.7526L57.2727 55.6365ZM59.6616 59.7931C60.1497 60.2812 60.9412 60.2812 61.4293 59.7931C61.9175 59.3049 61.9175 58.5135 61.4293 58.0253L59.6616 59.7931ZM53.1161 58.0253C52.628 58.5135 52.628 59.3049 53.1161 59.7931C53.6043 60.2812 54.3957 60.2812 54.8839 59.7931L53.1161 58.0253ZM58.5227 64.2274V55.6365H56.0227V64.2274H58.5227ZM56.3888 56.5204L59.6616 59.7931L61.4293 58.0253L58.1566 54.7526L56.3888 56.5204ZM56.3888 54.7526L53.1161 58.0253L54.8839 59.7931L58.1566 56.5204L56.3888 54.7526Z"
     fill="#060B08"
     id="path181" />
  <path
     style="color:#000000;fill:#060b08;stroke-linecap:round;stroke-linejoin:round;-inkscape-stroke:none"
     d="m 7.2734375,7.75 c -2.8847017,0 -5.25,2.365341 -5.25,5.25 v 7.544922 c 0,2.884655 2.3652983,5.25 5.25,5.25 H 64.726562 c 2.884744,0 5.25,-2.365364 5.25,-5.25 V 13 c 0,-2.884636 -2.365326,-5.25 -5.25,-5.25 z m 0,2.5 H 64.726562 c 1.533522,0 2.75,1.216441 2.75,2.75 v 7.544922 c 0,1.533559 -1.216347,2.75 -2.75,2.75 H 7.2734375 c -1.5335739,0 -2.75,-1.21646 -2.75,-2.75 V 13 c 0,-1.533537 1.2164261,-2.75 2.75,-2.75 z"
     id="path183" />
  <path
     style="color:#000000;fill:#060b08;stroke-linecap:round;stroke-linejoin:round;-inkscape-stroke:none"
     d="m 30.273437,34.75 a 1.25,1.25 0 0 0 -1.25,1.25 1.25,1.25 0 0 0 1.25,1.25 h 11.453125 a 1.25,1.25 0 0 0 1.25,-1.25 1.25,1.25 0 0 0 -1.25,-1.25 z"
     id="path185" />
  <path
     style="color:#000000;fill:#060b08;stroke-linecap:round;stroke-linejoin:round;-inkscape-stroke:none"
     d="m 60.582031,44.595703 c -0.859345,-0.06647 -1.728035,-0.01067 -2.580078,0.167969 -1.704202,0.357402 -3.27304,1.194292 -4.529297,2.412109 -1.011791,0.980742 -1.709653,2.210419 -2.199219,3.529297 h -0.435546 c -1.668426,0 -3.268263,0.675891 -4.441407,1.871094 -1.173159,1.195219 -1.828125,2.811062 -1.828125,4.492187 0,1.681126 0.654966,3.296969 1.828125,4.492188 1.173114,1.195172 2.772919,1.871094 4.441407,1.871094 a 1.25,1.25 0 0 0 1.25,-1.25 1.25,1.25 0 0 0 -1.25,-1.25 c -0.99391,0 -1.948719,-0.400221 -2.658204,-1.123047 -0.709438,-0.722779 -1.111328,-1.708963 -1.111328,-2.740235 0,-1.031271 0.40189,-2.017455 1.111328,-2.740234 0.709455,-0.722795 1.664232,-1.123047 2.658204,-1.123047 h 1.263671 a 1.250125,1.250125 0 0 0 1.212891,-0.943359 c 0.319115,-1.259129 0.978042,-2.398864 1.898438,-3.291016 0.920341,-0.89218 2.063939,-1.501921 3.302734,-1.761719 1.238712,-0.259713 2.521855,-0.16056 3.708984,0.28711 1.187043,0.447753 2.231014,1.226913 3.009766,2.251953 0.778825,1.02522 1.26177,2.254581 1.390625,3.548828 0.128945,1.294291 -0.102298,2.600012 -0.664063,3.765625 -0.561886,1.165775 -1.431393,2.145425 -2.507812,2.828125 a 1.25,1.25 0 0 0 -0.386719,1.724609 1.25,1.25 0 0 0 1.72461,0.386719 c 1.474378,-0.935099 2.659363,-2.271493 3.421875,-3.853516 0.762433,-1.581984 1.072892,-3.34655 0.898437,-5.097656 -0.174344,-1.751149 -0.826546,-3.418876 -1.886719,-4.814453 -1.060246,-1.395558 -2.486632,-2.463079 -4.117187,-3.078125 -0.815334,-0.307464 -1.666045,-0.496031 -2.525391,-0.5625 z"
     id="path187" />
</svg>
