<?xml version="1.0" encoding="UTF-8" standalone="no"?>
<svg
   width="17"
   height="16"
   viewBox="0 0 17 16"
   fill="none"
   version="1.1"
   id="svg476"
   sodipodi:docname="download.svg"
   inkscape:version="1.1.2 (b8e25be833, 2022-02-05)"
   xmlns:inkscape="http://www.inkscape.org/namespaces/inkscape"
   xmlns:sodipodi="http://sodipodi.sourceforge.net/DTD/sodipodi-0.dtd"
   xmlns="http://www.w3.org/2000/svg"
   xmlns:svg="http://www.w3.org/2000/svg">
  <defs
     id="defs480" />
  <sodipodi:namedview
     id="namedview478"
     pagecolor="#ffffff"
     bordercolor="#666666"
     borderopacity="1.0"
     inkscape:pageshadow="2"
     inkscape:pageopacity="0.0"
     inkscape:pagecheckerboard="0"
     showgrid="false"
     inkscape:zoom="51.4375"
     inkscape:cx="8.5054678"
     inkscape:cy="8.0097205"
     inkscape:window-width="1920"
     inkscape:window-height="1009"
     inkscape:window-x="-8"
     inkscape:window-y="-8"
     inkscape:window-maximized="1"
     inkscape:current-layer="svg476" />
  <path
     style="color:#000000;fill:#000000;stroke-linecap:round;stroke-linejoin:round;-inkscape-stroke:none"
     d="M 2.5,9.0996094 A 0.89999998,0.89999998 0 0 0 1.5996094,10 v 2.666016 c 0,0.59197 0.2358388,1.161519 0.6542969,1.580078 0.4185605,0.418477 0.9880672,0.654297 1.5800781,0.654297 h 9.3320316 c 0.592004,0 1.161542,-0.235929 1.580078,-0.654297 0.418368,-0.418536 0.654297,-0.988074 0.654297,-1.580078 V 10 A 0.89999998,0.89999998 0 0 0 14.5,9.0996094 0.89999998,0.89999998 0 0 0 13.599609,10 v 2.666016 c 0,0.115195 -0.04532,0.224977 -0.126953,0.30664 -0.08166,0.08163 -0.191445,0.126953 -0.30664,0.126953 H 3.8339844 c -0.1152284,0 -0.2251017,-0.04543 -0.3066406,-0.126953 -0.081622,-0.08164 -0.1269532,-0.191412 -0.1269532,-0.30664 V 10 A 0.89999998,0.89999998 0 0 0 2.5,9.0996094 Z"
     id="path470" />
  <path
     style="color:#000000;fill:#000000;stroke-linecap:round;stroke-linejoin:round;-inkscape-stroke:none"
     d="M 5.1660156,5.7675781 A 0.89999998,0.89999998 0 0 0 4.53125,6.03125 a 0.89999998,0.89999998 0 0 0 0,1.2714844 l 3.3320312,3.3339846 a 0.90008998,0.90008998 0 0 0 1.2734376,0 L 12.470703,7.3027344 a 0.89999998,0.89999998 0 0 0 0,-1.2714844 0.89999998,0.89999998 0 0 0 -1.273437,0 L 8.5,8.7265625 5.8027344,6.03125 A 0.89999998,0.89999998 0 0 0 5.1660156,5.7675781 Z"
     id="path472" />
  <path
     style="color:#000000;fill:#000000;stroke-linecap:round;stroke-linejoin:round;-inkscape-stroke:none"
     d="M 8.5,1.0996094 A 0.89999998,0.89999998 0 0 0 7.5996094,2 v 8 A 0.89999998,0.89999998 0 0 0 8.5,10.900391 0.89999998,0.89999998 0 0 0 9.4003906,10 V 2 A 0.89999998,0.89999998 0 0 0 8.5,1.0996094 Z"
     id="path474" />
</svg>
