<svg width="16" height="16" viewBox="0 0 16 16" fill="none" xmlns="http://www.w3.org/2000/svg">
<path d="M8.35789 0C8.24742 0 8.1343 0.00549925 8.01746 0.0134982C5.02468 0.236968 5.81868 3.21856 5.77407 4.21293C5.71883 4.93933 5.56163 5.51475 5.03052 6.22616C4.40222 6.92656 3.52271 8.05941 3.10526 9.23825C2.90929 9.79267 2.81475 10.3636 2.90344 10.9C2.87004 10.9233 2.84263 10.9534 2.82325 10.988C2.64055 11.168 2.50458 11.3895 2.35534 11.5479C2.2146 11.6804 2.01278 11.7254 1.79078 11.8139C1.56984 11.9044 1.32341 11.9934 1.17948 12.2693C1.11575 12.3948 1.08229 12.5298 1.08547 12.6708C1.08547 12.8008 1.10512 12.9362 1.12424 13.0272C1.1662 13.2927 1.2071 13.5117 1.15186 13.6731C0.975002 14.1256 0.955883 14.4355 1.07751 14.6625C1.20125 14.8865 1.45618 14.975 1.74086 15.064C2.31657 15.1964 3.09358 15.1544 3.70807 15.4619C4.36292 15.7744 5.02999 15.9098 5.56109 15.7774C5.74429 15.7387 5.91604 15.6621 6.06385 15.5531C6.21167 15.4442 6.33184 15.3056 6.41564 15.1474C6.83044 15.1449 7.28665 14.9675 8.0148 14.9235C8.50979 14.884 9.12959 15.103 9.84021 15.056C9.85933 15.1474 9.88429 15.1884 9.92306 15.2799V15.2824C10.1992 15.8004 10.7112 16.0348 11.2593 15.9958C11.8037 15.9543 12.3847 15.6394 12.8548 15.124C13.303 14.616 14.0471 14.402 14.5394 14.1241C14.7859 13.9906 14.985 13.8116 14.9988 13.5537C15.0153 13.2882 14.8581 13.0122 14.4953 12.6373V12.5718L14.4927 12.5693C14.3711 12.4368 14.3158 12.2128 14.2521 11.9529C14.191 11.6844 14.1246 11.4295 13.9037 11.255C13.8591 11.2185 13.815 11.2105 13.7683 11.1665C13.729 11.1405 13.6829 11.1252 13.635 11.1225C13.9393 10.2706 13.8203 9.42472 13.5101 8.66133C13.1341 7.72145 12.4729 6.90156 11.9721 6.33914C11.4075 5.66973 10.8546 5.03482 10.8658 4.09494C10.8849 2.65964 11.0341 0.00699905 8.35683 0.0014998L8.35789 0ZM8.73126 2.27019H8.74241C8.89165 2.27019 9.02125 2.31219 9.15455 2.40067C9.28998 2.49116 9.38983 2.62214 9.46419 2.75713C9.53907 2.9291 9.57837 3.06158 9.58315 3.23856C9.58315 3.22606 9.58581 3.21256 9.58581 3.20007V3.27006C9.58581 3.26456 9.58315 3.26006 9.58315 3.25456L9.5805 3.23856C9.5805 3.40054 9.54491 3.56202 9.47587 3.71C9.44306 3.79424 9.39103 3.87069 9.32344 3.93397C9.30432 3.92397 9.28467 3.91347 9.26237 3.90547C9.18801 3.87397 9.12162 3.86398 9.06055 3.81748C9.01029 3.79853 8.95841 3.78365 8.90546 3.77299C8.93892 3.73449 9.00797 3.6845 9.03558 3.64051C9.0717 3.55702 9.09082 3.46603 9.09666 3.37254V3.35904C9.09817 3.2688 9.08307 3.17898 9.05205 3.09358C9.02178 3.00509 8.98354 2.9601 8.92511 2.87211C8.86404 2.82762 8.80615 2.78362 8.73392 2.78362H8.72329C8.65691 2.78362 8.59848 2.80162 8.53794 2.87211C8.47149 2.93378 8.42208 3.00981 8.39401 3.09358C8.35543 3.17757 8.33381 3.2676 8.33028 3.35904V3.37254C8.33028 3.43203 8.33612 3.49203 8.34355 3.55202C8.20547 3.50802 8.03392 3.46053 7.9123 3.41654C7.90568 3.37264 7.90195 3.32839 7.90114 3.28405V3.27056C7.89577 3.0945 7.93186 2.9195 8.00683 2.75813C8.06472 2.61215 8.16988 2.48666 8.31116 2.40367C8.43225 2.31819 8.57883 2.27119 8.73126 2.27119V2.27019ZM6.63446 2.30969H6.65942C6.75927 2.30969 6.85062 2.34118 6.94197 2.39818C7.0466 2.48416 7.13051 2.59065 7.18574 2.70763C7.24948 2.84111 7.28506 2.9761 7.29622 3.15307V3.15557C7.29887 3.24406 7.29887 3.29155 7.29356 3.33305V3.38754L7.23567 3.40304C7.12785 3.43953 7.04235 3.49153 6.95578 3.53652C6.96427 3.47653 6.96427 3.41654 6.95843 3.35904V3.34855C6.95047 3.26056 6.93082 3.21606 6.90054 3.12708C6.87787 3.05865 6.83691 2.99685 6.78157 2.9476C6.74679 2.91841 6.70118 2.90332 6.65464 2.90561H6.63764C6.58825 2.90811 6.54629 2.9316 6.50806 2.99409C6.46124 3.04479 6.43148 3.10743 6.42255 3.17407C6.4029 3.24406 6.39705 3.31955 6.40555 3.39554V3.40304C6.41405 3.49453 6.43051 3.53902 6.46344 3.62701C6.48481 3.69483 6.52495 3.75608 6.57975 3.80448C6.58825 3.81248 6.59409 3.81798 6.60472 3.81998C6.55532 3.85948 6.52186 3.86748 6.48097 3.91147C6.45282 3.92997 6.42308 3.95346 6.38696 3.95896C6.31331 3.87557 6.24839 3.78566 6.19311 3.6905C6.12535 3.55036 6.0878 3.39896 6.08264 3.24506C6.07192 3.09465 6.09064 2.94366 6.13787 2.79962C6.17983 2.66964 6.24622 2.54715 6.33969 2.44317C6.43104 2.35468 6.52239 2.31069 6.63552 2.31069L6.63446 2.30969ZM7.60532 3.44753C7.8406 3.44753 8.12315 3.48903 8.46571 3.713C8.67337 3.84648 8.83695 3.89297 9.21297 4.02295C9.39567 4.11444 9.5003 4.20293 9.55288 4.29142V4.20293C9.5781 4.25122 9.59214 4.304 9.59406 4.35778C9.59598 4.41156 9.58575 4.46511 9.56403 4.51489C9.47534 4.72336 9.19863 4.94483 8.80933 5.07731V5.07981C8.62079 5.1683 8.45509 5.30128 8.26123 5.38977C8.06526 5.47826 7.84325 5.58524 7.54477 5.56725C7.43668 5.57171 7.32868 5.55661 7.22664 5.52275C7.14797 5.48344 7.0722 5.43918 6.99986 5.39027C6.86177 5.30178 6.7428 5.1688 6.56595 5.08031V5.07781H6.56329C6.27809 4.91383 6.12619 4.73636 6.07627 4.60388C6.02953 4.4244 6.07361 4.29192 6.21488 4.20343C6.37209 4.11494 6.48256 4.02345 6.55479 3.97946C6.62915 3.92997 6.6573 3.91147 6.6796 3.89347H6.68226V3.89097C6.80123 3.75549 6.98871 3.57852 7.2771 3.48953C7.37323 3.46603 7.48476 3.44803 7.60585 3.44803L7.60532 3.44753ZM9.58581 4.87384C9.84074 5.81921 10.4356 7.19153 10.8174 7.85544C11.0193 8.21189 11.4229 8.96179 11.5971 9.87116C11.7076 9.86866 11.8292 9.88366 11.9598 9.91516C12.4187 8.80081 11.5753 7.60297 11.1908 7.26952C11.0331 7.13703 11.0251 7.04804 11.1021 7.04804C11.5201 7.402 12.0671 8.0954 12.2663 8.8838C12.3576 9.24025 12.3805 9.6212 12.2833 9.99815C12.33 10.0161 12.3773 10.0396 12.4272 10.0421C13.1575 10.3996 13.4284 10.6676 13.2982 11.068V11.0395C13.2573 11.0375 13.2127 11.0395 13.1713 11.0395H13.1601C13.2685 10.7275 13.0306 10.4876 12.4054 10.2221C11.758 9.95665 11.2407 9.99814 11.152 10.5321C11.1458 10.5622 11.1422 10.5928 11.1414 10.6236C11.091 10.6391 11.0416 10.6571 10.9922 10.6651C10.6879 10.845 10.5243 11.113 10.4308 11.4569C10.3394 11.8134 10.3118 12.2273 10.2869 12.7043C10.2699 12.9282 10.1652 13.2637 10.0596 13.6047C8.99734 14.3206 7.523 14.6305 6.27331 13.8286C6.19258 13.6986 6.09857 13.5787 5.9881 13.4722C5.93507 13.3894 5.86899 13.3148 5.79213 13.2507C5.92171 13.2507 6.03272 13.2302 6.12141 13.2062C6.22271 13.1603 6.30236 13.0807 6.34501 12.9827C6.41989 12.8053 6.34501 12.5188 6.09857 12.2063C5.85586 11.8969 5.44053 11.5449 4.83454 11.194C4.38682 10.9285 4.13508 10.6136 4.01877 10.2641C3.90245 9.90766 3.91892 9.54021 4.00761 9.16826C4.18181 8.45485 4.62741 7.75995 4.91262 7.32451C4.98697 7.28301 4.93758 7.41599 4.6221 7.97592C4.34221 8.47585 3.81429 9.63969 4.53553 10.5431C4.56325 9.8833 4.71895 9.23387 4.99494 8.62683C5.39274 7.77545 6.22869 6.29165 6.29508 5.11481C6.32854 5.1408 6.44751 5.20629 6.49956 5.25029C6.65198 5.33878 6.76777 5.47176 6.91754 5.56025C7.06678 5.69273 7.25479 5.78422 7.53734 5.78422C7.56495 5.78672 7.58992 5.78672 7.61435 5.78672C7.90486 5.78672 8.13217 5.69823 8.31965 5.60924C8.52413 5.51775 8.6909 5.38527 8.84492 5.34128H8.84757C9.17686 5.25279 9.43976 5.07281 9.58634 4.87484L9.58581 4.87384ZM11.135 10.845C11.1627 11.2455 11.3788 11.6754 11.7602 11.7634C12.1749 11.8519 12.7751 11.5419 13.0268 11.2535L13.1761 11.248C13.3997 11.2425 13.5856 11.2535 13.7757 11.4255L13.7784 11.428C13.9249 11.5604 13.9945 11.7819 14.0551 12.0114C14.1161 12.2793 14.1629 12.5318 14.3456 12.7218C14.6881 13.0732 14.8018 13.3257 14.7965 13.4822C14.7853 13.6561 14.6632 13.7446 14.4422 13.8776C13.9966 14.1461 13.2058 14.3516 12.7023 14.925C12.2647 15.4169 11.7315 15.6849 11.2604 15.7189C10.7904 15.7554 10.3835 15.5864 10.1456 15.1205L10.1429 15.118C9.9937 14.852 10.0574 14.4355 10.1817 13.9926C10.3065 13.5472 10.486 13.0947 10.511 12.7273C10.536 12.2508 10.5636 11.8369 10.6464 11.5159C10.7319 11.206 10.8652 10.9845 11.1032 10.8625L11.1334 10.8465L11.135 10.845ZM3.47545 10.8785H3.48394C3.52271 10.8785 3.55883 10.881 3.59441 10.889C3.85997 10.9255 4.09524 11.1105 4.31937 11.389L4.9636 12.4983L4.96626 12.5008C5.1378 12.8548 5.50002 13.2087 5.807 13.5922C6.11451 13.9901 6.35244 14.3466 6.32482 14.6385V14.644C6.28287 15.1384 5.98439 15.4064 5.52817 15.5059C5.07142 15.5944 4.45162 15.5059 3.83235 15.1959C3.14669 14.8395 2.33038 14.8835 1.80778 14.7945C1.54806 14.7505 1.37652 14.659 1.29579 14.5265C1.21878 14.394 1.21559 14.1251 1.38448 13.7061V13.7041C1.46734 13.4802 1.40732 13.2017 1.36536 12.9567C1.32659 12.6908 1.30747 12.4848 1.39564 12.3313C1.50876 12.1074 1.67765 12.0659 1.88479 11.9749C2.09245 11.8864 2.33888 11.8424 2.5322 11.6624H2.53486V11.6599C2.7149 11.4834 2.85087 11.262 3.00807 11.1025C3.14138 10.967 3.27628 10.8785 3.47545 10.8785ZM8.54644 4.82985C8.23893 4.96233 7.87671 5.1863 7.49219 5.1863C7.10767 5.1863 6.80601 5.00982 6.58772 4.87634C6.47725 4.78585 6.38856 4.69686 6.32217 4.65237C6.20586 4.56438 6.21967 4.4289 6.26959 4.4289C6.3466 4.4389 6.36094 4.51939 6.41033 4.56438C6.47991 4.60838 6.56276 4.69686 6.66473 4.78585C6.87239 4.91833 7.1491 5.09781 7.49166 5.09781C7.83529 5.09781 8.23893 4.91833 8.48217 4.78585C8.62026 4.69736 8.79712 4.56438 8.94105 4.47589C9.05152 4.38441 9.04674 4.29592 9.13702 4.29592C9.22838 4.30642 9.16252 4.38441 9.03505 4.51739C8.90493 4.60888 8.7063 4.74136 8.54644 4.82985ZM7.78005 3.77299V3.76049C7.7774 3.74699 7.78802 3.73199 7.80183 3.72649C7.85122 3.698 7.92876 3.708 7.98453 3.72899C8.02861 3.72899 8.09765 3.77299 8.09234 3.81948C8.0865 3.85098 8.03126 3.86398 7.99515 3.86398C7.95691 3.86398 7.92876 3.83548 7.89583 3.81748C7.85972 3.80698 7.79067 3.81198 7.78005 3.77299ZM7.38969 3.77299C7.37535 3.81248 7.30896 3.80698 7.27338 3.81748C7.23992 3.83548 7.2123 3.86398 7.17353 3.86398C7.13741 3.86398 7.07952 3.85048 7.07634 3.81748C7.07156 3.77299 7.13741 3.72899 7.18203 3.72899C7.23992 3.7075 7.31162 3.6975 7.36685 3.72649C7.37801 3.73199 7.39235 3.74699 7.3865 3.76049V3.77299H7.38969Z" fill="#060B08"/>
</svg>
