<svg width="16" height="16" viewBox="0 0 16 16" fill="none" xmlns="http://www.w3.org/2000/svg">
<path d="M15 11.7393C14.6171 12.5718 14.434 12.944 13.9423 13.6797C13.2553 14.7071 12.2854 15.9892 11.0862 15.998C10.0196 16.0068 9.74425 15.3145 8.29666 15.3258C6.84908 15.3327 6.54752 16.0106 5.4796 15.9999C4.28043 15.9892 3.36232 14.8341 2.6747 13.8086C0.752051 10.9319 0.549094 7.56042 1.73738 5.76652C2.57802 4.4945 3.90844 3.74751 5.15756 3.74751C6.42972 3.74751 7.22938 4.43414 8.2813 4.43414C9.30184 4.43414 9.92352 3.74563 11.3948 3.74563C12.5075 3.74563 13.6843 4.34108 14.5249 5.3685C11.7745 6.84864 12.2213 10.7068 15 11.7393ZM10.2782 2.59748C10.8135 1.9228 11.2194 0.970833 11.0721 0C10.1988 0.0584763 9.17764 0.606142 8.58093 1.3154C8.04057 1.96116 7.5924 2.92067 7.76718 3.84875C8.71986 3.87893 9.70584 3.3212 10.2782 2.59748Z" fill="#060B08"/>
</svg>
